<svg xmlns="http://www.w3.org/2000/svg" width="14" height="16" viewBox="0 0 14 16" fill="none">
  <g clip-path="url(#clip0_247_5095)">
    <path fill-rule="evenodd" clip-rule="evenodd" d="M6.64095 14.8276C6.94145 14.8276 12.311 9.09051 12.311 5.95906C12.311 2.82761 9.77238 0.289062 6.64095 0.289062C3.50949 0.289062 0.970947 2.82761 0.970947 5.95906C0.970947 9.09051 6.34044 14.8276 6.64095 14.8276ZM6.64095 8.79501C8.2286 8.79501 9.51566 7.50794 9.51566 5.92029C9.51566 4.33264 8.2286 3.0456 6.64095 3.0456C5.05331 3.0456 3.76627 4.33264 3.76627 5.92029C3.76627 7.50794 5.05331 8.79501 6.64095 8.79501Z" fill="white"/>
    <path fill-rule="evenodd" clip-rule="evenodd" d="M0.970947 5.95906C0.970947 9.09051 6.34045 14.8276 6.64095 14.8276V8.79501C5.0533 8.79494 3.76627 7.50793 3.76627 5.92029C3.76627 4.33265 5.0533 3.0456 6.64095 3.0456V0.289062C3.50949 0.289062 0.970947 2.82761 0.970947 5.95906Z" fill="#2C1A8E"/>
  </g>
  <defs>
    <clipPath id="clip0_247_5095">
      <rect width="12.1667" height="15.2083" fill="white" transform="translate(0.890625 0.140625)"/>
    </clipPath>
  </defs>
</svg>